<?xml version="1.0" encoding="utf-8"?>
<svg width="624" height="491" version="1.1" xmlns="http://www.w3.org/2000/svg">
  <g>
    <path d="M 348.2184 306.7122 C 348.218444824219 303.503051757813 344.5927734375 300.85205078125 339.990936279297 300.85205078125 C 281.840545654297 300.85205078125 281.840545654297 300.85205078125 281.840545654297 300.85205078125 C 277.238739013672 300.85205078125 273.613067626953 303.503051757813 273.613067626953 306.712188720703 C 259.528656005859 358.756134033203 259.528656005859 358.756134033203 259.528656005859 358.756134033203 C 259.528656005859 362.104797363281 263.293792724609 364.755828857422 267.756134033203 364.755828857422 C 357.561584472656 364.755828857422 357.561584472656 364.755828857422 357.561584472656 364.755828857422 C 362.163391113281 364.755828857422 365.7890625 362.104797363281 365.7890625 358.756134033203 L 348.2184 306.7122 Z " fill="#D7D7D7" />
    <path d="M 525.4748 300.7408 C 525.474792480469 305.203704833984 521.850952148438 308.969207763672 517.251403808594 308.969207763672 C 115.142059326172 308.969207763672 115.142059326172 308.969207763672 115.142059326172 308.969207763672 C 110.542510986328 308.969207763672 106.779296875 305.203704833984 106.779296875 300.740844726563 C 106.779296875 28.228343963623 106.779296875 28.228343963623 106.779296875 28.228343963623 C 106.779296875 23.765510559082 110.542510986328 20 115.142059326172 20 C 517.251403808594 20 517.251403808594 20 517.251403808594 20 C 521.850952148438 20 525.474792480469 23.765510559082 525.474792480469 28.228343963623 L 525.4748 300.7408 Z " fill="#F3F3F3" />
    <path d="M 106.7792 36.08653 L 525.4747 36.08653 L 525.4747 268.5311 L 106.7792 268.5311 L 106.7792 36.08653 Z " fill="#706F6F" />
    <path d="M 406.2271 360.0797 C 406.227111816406 364.676361083984 402.602600097656 368.297943115234 398.002258300781 368.297943115234 C 228.348571777344 368.297943115234 228.348571777344 368.297943115234 228.348571777344 368.297943115234 C 223.887634277344 368.297943115234 220.123779296875 364.676361083984 220.123779296875 360.079681396484 C 220.123779296875 351.722106933594 220.123779296875 351.722106933594 220.123779296875 351.722106933594 C 220.123779296875 347.264709472656 223.887634277344 343.503845214844 228.348571777344 343.503845214844 C 398.002258300781 343.503845214844 398.002258300781 343.503845214844 398.002258300781 343.503845214844 C 402.602600097656 343.503845214844 406.227111816406 347.264709472656 406.227111816406 351.722106933594 L 406.2271 360.0797 Z " fill="#AFAFAF" />
    <path d="M 520.1618 52.46842 L 106.7793 52.46842 L 106.7793 247.8694 L 393.092 247.8694 L 434.8583 247.8694 L 525.4748 247.8694 L 525.4748 137.7719 L 525.4748 87.15063 L 525.4748 72.09708 L 525.4748 52.46842 L 520.1618 52.46842 Z " fill="#9B9B9B" />
    <path d="M 375.3116 135.171 C 361.226135253906 135.171020507813 361.226135253906 135.171020507813 361.226135253906 135.171020507813 C 361.226135253906 86.4799957275391 361.226135253906 86.4799957275391 361.226135253906 86.4799957275391 C 361.226135253906 86.4799957275391 361.226135253906 86.3404693603516 361.226135253906 86.2010192871094 C 360.947265625 73.0865325927734 349.651000976563 68.0639343261719 343.514709472656 67.2268447875977 C 343.23583984375 67.2268447875977 342.956939697266 67.2268447875977 342.538513183594 67.2268447875977 C 294.285339355469 67.2268447875977 294.285339355469 67.2268447875977 294.285339355469 67.2268447875977 C 286.615051269531 67.2268447875977 280.618255615234 69.3196029663086 276.434478759766 73.5050354003906 C 271.413940429688 78.6671600341797 271.134948730469 84.6662979125977 271.134948730469 85.7824401855469 C 271.134948730469 135.171020507813 271.134948730469 135.171020507813 271.134948730469 135.171020507813 C 256.352203369141 135.171020507813 256.352203369141 135.171020507813 256.352203369141 135.171020507813 C 251.331665039063 135.171020507813 247.4267578125 139.077484130859 247.4267578125 144.100067138672 C 247.4267578125 224.18212890625 247.4267578125 224.18212890625 247.4267578125 224.18212890625 C 247.4267578125 229.065124511719 251.331665039063 233.111083984375 256.352203369141 233.111083984375 C 272.947967529297 233.111083984375 272.947967529297 233.111083984375 272.947967529297 233.111083984375 C 375.311645507813 233.111083984375 375.311645507813 233.111083984375 375.311645507813 233.111083984375 C 380.192749023438 233.111083984375 384.237060546875 229.065124511719 384.237060546875 224.18212890625 C 384.237060546875 144.100067138672 384.237060546875 144.100067138672 384.237060546875 144.100067138672 C 384.237060546875 139.077484130859 380.192749023438 135.171020507813 375.311645507813 135.171020507813  ZM 346.304 135.171 C 331.800079345703 135.171020507813 331.800079345703 135.171020507813 331.800079345703 135.171020507813 C 286.057250976563 135.171020507813 286.057250976563 135.171020507813 286.057250976563 135.171020507813 C 286.057250976563 85.9219665527344 286.057250976563 85.9219665527344 286.057250976563 85.9219665527344 C 286.336151123047 83.5501556396484 289.264801025391 82.015510559082 294.285339355469 82.015510559082 C 341.980712890625 82.015510559082 341.980712890625 82.015510559082 341.980712890625 82.015510559082 C 343.096374511719 82.294563293457 346.303955078125 83.2711791992188 346.303955078125 86.4799957275391 C 346.303955078125 110.89527130127 346.303955078125 110.89527130127 346.303955078125 110.89527130127 L 346.304 135.171 Z " fill="#FFC32C" />
    <path d="M 286.0531 135.171 C 286.053070068359 85.9219665527344 286.053070068359 85.9219665527344 286.053070068359 85.9219665527344 C 286.331970214844 83.5501556396484 289.260314941406 82.015510559082 294.280303955078 82.015510559082 C 341.970550537109 82.015510559082 341.970550537109 82.015510559082 341.970550537109 82.015510559082 C 343.086151123047 82.294563293457 346.293395996094 83.2711791992188 346.293395996094 86.4799957275391 C 346.293395996094 110.89527130127 346.293395996094 110.89527130127 346.293395996094 110.89527130127 C 361.213989257813 86.2010192871094 361.213989257813 86.2010192871094 361.213989257813 86.2010192871094 C 360.935119628906 73.0865325927734 349.640075683594 68.0639343261719 343.504486083984 67.2268447875977 C 343.2255859375 67.2268447875977 342.946685791016 67.2268447875977 342.528350830078 67.2268447875977 C 294.280303955078 67.2268447875977 294.280303955078 67.2268447875977 294.280303955078 67.2268447875977 C 286.610870361328 67.2268447875977 280.614715576172 69.3196029663086 276.431335449219 73.5050354003906 C 271.411346435547 78.6671600341797 271.132446289063 84.6662979125977 271.132446289063 85.7824401855469 C 271.132446289063 135.171020507813 271.132446289063 135.171020507813 271.132446289063 135.171020507813 C 256.351257324219 135.171020507813 256.351257324219 135.171020507813 256.351257324219 135.171020507813 C 251.331268310547 135.171020507813 247.4267578125 139.077484130859 247.4267578125 144.100067138672 C 247.4267578125 224.18212890625 247.4267578125 224.18212890625 247.4267578125 224.18212890625 C 247.4267578125 229.065124511719 251.331268310547 233.111083984375 256.351257324219 233.111083984375 C 272.945190429688 233.111083984375 272.945190429688 233.111083984375 272.945190429688 233.111083984375 C 331.791107177734 135.171020507813 331.791107177734 135.171020507813 331.791107177734 135.171020507813 L 286.0531 135.171 Z " fill="#F7AA00" />
    <path d="M 330.6641 169.8244 C 330.664093017578 160.345031738281 322.977722167969 152.677886962891 313.474487304688 152.677886962891 C 303.971343994141 152.677886962891 296.424652099609 160.345031738281 296.424652099609 169.824401855469 C 296.424652099609 176.794555664063 300.617248535156 182.788909912109 306.626617431641 185.437561035156 C 306.626617431641 208.717864990234 306.626617431641 208.717864990234 306.626617431641 208.717864990234 C 306.626617431641 212.481719970703 309.701171875 215.548583984375 313.474487304688 215.548583984375 C 317.247802734375 215.548583984375 320.462127685547 212.481719970703 320.462127685547 208.717864990234 C 320.462127685547 185.437561035156 320.462127685547 185.437561035156 320.462127685547 185.437561035156 C 326.471496582031 182.788909912109 330.664093017578 176.794555664063 330.664093017578 169.824401855469  Z" fill="#473305" />
    <path d="M 604.8749 462.8267 C 604.874938964844 467.708892822266 601.667114257813 471.754150390625 597.761840820313 471.754150390625 C 406.264282226563 471.754150390625 406.264282226563 471.754150390625 406.264282226563 471.754150390625 C 402.358947753906 471.754150390625 399.29052734375 467.708892822266 399.29052734375 462.826690673828 C 399.29052734375 116.887474060059 399.29052734375 116.887474060059 399.29052734375 116.887474060059 C 399.29052734375 111.865745544434 402.358947753906 107.959999084473 406.264282226563 107.959999084473 C 597.761840820313 107.959999084473 597.761840820313 107.959999084473 597.761840820313 107.959999084473 C 601.667114257813 107.959999084473 604.874938964844 111.865745544434 604.874938964844 116.887474060059 L 604.8749 462.8267 Z " fill="#EDEDED" />
    <path d="M 593.3634 409.6508 C 593.363403320313 414.112976074219 590.01953125 417.738494873047 585.97900390625 417.738494873047 C 418.785095214844 417.738494873047 418.785095214844 417.738494873047 418.785095214844 417.738494873047 C 414.74462890625 417.738494873047 411.540100097656 414.112976074219 411.540100097656 409.650787353516 C 411.540100097656 152.796051025391 411.540100097656 152.796051025391 411.540100097656 152.796051025391 C 411.540100097656 148.333862304688 414.74462890625 144.708343505859 418.785095214844 144.708343505859 C 585.97900390625 144.708343505859 585.97900390625 144.708343505859 585.97900390625 144.708343505859 C 590.01953125 144.708343505859 593.363403320313 148.333862304688 593.363403320313 152.796051025391 L 593.3634 409.6508 Z " fill="#575756" />
    <path d="M 546.3663 262.6774 C 536.039123535156 262.677398681641 536.039123535156 262.677398681641 536.039123535156 262.677398681641 C 536.039123535156 227.122283935547 536.039123535156 227.122283935547 536.039123535156 227.122283935547 C 536.039123535156 227.122283935547 536.039123535156 226.982818603516 536.039123535156 226.843475341797 C 535.899536132813 217.362060546875 527.526123046875 213.597412109375 523.199951171875 213.039672851563 C 522.920776367188 213.039672851563 522.641723632813 213.039672851563 522.502136230469 213.039672851563 C 487.054870605469 213.039672851563 487.054870605469 213.039672851563 487.054870605469 213.039672851563 C 481.472595214844 213.039672851563 477.146362304688 214.573455810547 474.076171875 217.640930175781 C 470.30810546875 221.405578613281 470.168518066406 225.727935791016 470.168518066406 226.564575195313 C 470.168518066406 262.677398681641 470.168518066406 262.677398681641 470.168518066406 262.677398681641 C 459.283142089844 262.677398681641 459.283142089844 262.677398681641 459.283142089844 262.677398681641 C 455.794250488281 262.677398681641 452.863525390625 265.605499267578 452.863525390625 269.230712890625 C 452.863525390625 327.652679443359 452.863525390625 327.652679443359 452.863525390625 327.652679443359 C 452.863525390625 331.277954101563 455.794250488281 334.205963134766 459.283142089844 334.205963134766 C 471.424560546875 334.205963134766 471.424560546875 334.205963134766 471.424560546875 334.205963134766 C 546.366271972656 334.205963134766 546.366271972656 334.205963134766 546.366271972656 334.205963134766 C 549.994750976563 334.205963134766 552.925415039063 331.277954101563 552.925415039063 327.652679443359 C 552.925415039063 269.230712890625 552.925415039063 269.230712890625 552.925415039063 269.230712890625 C 552.925415039063 265.605499267578 549.994750976563 262.677398681641 546.366271972656 262.677398681641  ZM 525.1537 262.6774 C 514.547485351563 262.677398681641 514.547485351563 262.677398681641 514.547485351563 262.677398681641 C 481.053955078125 262.677398681641 481.053955078125 262.677398681641 481.053955078125 262.677398681641 C 481.053955078125 226.704010009766 481.053955078125 226.704010009766 481.053955078125 226.704010009766 C 481.333068847656 224.891418457031 483.426391601563 223.915344238281 487.054870605469 223.915344238281 C 521.943908691406 223.915344238281 521.943908691406 223.915344238281 521.943908691406 223.915344238281 C 522.78125 224.054809570313 525.153686523438 224.751953125 525.153686523438 227.122283935547 C 525.153686523438 244.969604492188 525.153686523438 244.969604492188 525.153686523438 244.969604492188 L 525.1537 262.6774 Z " fill="#FFC32C" />
    <path d="M 481.0248 262.6774 C 481.024780273438 226.704010009766 481.024780273438 226.704010009766 481.024780273438 226.704010009766 C 481.3037109375 224.891418457031 483.394897460938 223.915344238281 487.019592285156 223.915344238281 C 521.872680664063 223.915344238281 521.872680664063 223.915344238281 521.872680664063 223.915344238281 C 522.709106445313 224.054809570313 525.079162597656 224.751953125 525.079162597656 227.122283935547 C 525.079162597656 244.969604492188 525.079162597656 244.969604492188 525.079162597656 244.969604492188 C 535.953308105469 226.843475341797 535.953308105469 226.843475341797 535.953308105469 226.843475341797 C 535.813842773438 217.362060546875 527.449157714844 213.597412109375 523.127380371094 213.039672851563 C 522.848571777344 213.039672851563 522.569702148438 213.039672851563 522.430297851563 213.039672851563 C 487.019592285156 213.039672851563 487.019592285156 213.039672851563 487.019592285156 213.039672851563 C 481.443054199219 213.039672851563 477.121276855469 214.573455810547 474.054260253906 217.640930175781 C 470.290100097656 221.405578613281 470.150695800781 225.727935791016 470.150695800781 226.564575195313 C 470.150695800781 262.677398681641 470.150695800781 262.677398681641 470.150695800781 262.677398681641 C 459.276550292969 262.677398681641 459.276550292969 262.677398681641 459.276550292969 262.677398681641 C 455.791198730469 262.677398681641 452.863525390625 265.605499267578 452.863525390625 269.230712890625 C 452.863525390625 327.652679443359 452.863525390625 327.652679443359 452.863525390625 327.652679443359 C 452.863525390625 331.277954101563 455.791198730469 334.205963134766 459.276550292969 334.205963134766 C 471.405334472656 334.205963134766 471.405334472656 334.205963134766 471.405334472656 334.205963134766 C 514.483764648438 262.677398681641 514.483764648438 262.677398681641 514.483764648438 262.677398681641 L 481.0248 262.6774 Z " fill="#F7AA00" />
    <path d="M 513.6681 287.8839 C 513.668090820313 281.048034667969 508.094543457031 275.467620849609 501.266906738281 275.467620849609 C 494.299926757813 275.467620849609 488.726379394531 281.048034667969 488.726379394531 287.883941650391 C 488.726379394531 293.045806884766 491.791809082031 297.370544433594 496.111328125 299.323699951172 C 496.111328125 316.343780517578 496.111328125 316.343780517578 496.111328125 316.343780517578 C 496.111328125 319.134002685547 498.480163574219 321.366119384766 501.266906738281 321.366119384766 C 503.914306640625 321.366119384766 506.283142089844 319.134002685547 506.283142089844 316.343780517578 C 506.283142089844 299.323699951172 506.283142089844 299.323699951172 506.283142089844 299.323699951172 C 510.602661132813 297.370544433594 513.668090820313 293.045806884766 513.668090820313 287.883941650391  Z" fill="#473305" />
    <path d="M 505.6985 253.4776 C 505.698486328125 232.366912841797 522.812072753906 215.253387451172 543.922729492188 215.253387451172 C 565.033447265625 215.253387451172 582.147033691406 232.366912841797 582.147033691406 253.477630615234 C 582.147033691406 274.588348388672 565.033447265625 291.701873779297 543.922729492188 291.701873779297 C 522.812072753906 291.701873779297 505.698486328125 274.588348388672 505.698486328125 253.477630615234  Z" fill="#42AA92" />
    <path d="M 540.0513 280.0427 C 538.659606933594 280.042663574219 537.407104492188 279.625274658203 536.293701171875 278.651397705078 C 515.696716308594 262.651885986328 515.696716308594 262.651885986328 515.696716308594 262.651885986328 C 513.052429199219 260.565032958984 512.634948730469 256.66943359375 514.722534179688 254.026062011719 C 516.809997558594 251.382659912109 520.567626953125 250.965270996094 523.211791992188 253.052185058594 C 539.077087402344 265.434387207031 539.077087402344 265.434387207031 539.077087402344 265.434387207031 C 564.545043945313 234.548400878906 564.545043945313 234.548400878906 564.545043945313 234.548400878906 C 566.632568359375 231.905029296875 570.529296875 231.487640380859 573.173522949219 233.713623046875 C 575.678588867188 235.800537109375 576.096069335938 239.696044921875 574.008483886719 242.200317382813 C 544.783020019531 277.816680908203 544.783020019531 277.816680908203 544.783020019531 277.816680908203 C 543.530456542969 279.207946777344 541.721313476563 280.042663574219 540.05126953125 280.042663574219  Z" fill="#F6F6F6" />
    <path d="M 284.9604 255.8855 C 284.960388183594 255.885498046875 262.2333984375 256.861236572266 246.199066162109 240.830627441406 C 231.698333740234 226.333312988281 237.972686767578 199.4296875 237.972686767578 199.4296875 C 209.947387695313 193.853790283203 209.947387695313 193.853790283203 209.947387695313 193.853790283203 C 195.864959716797 229.957641601563 195.864959716797 229.957641601563 195.864959716797 229.957641601563 C 215.942840576172 234.000152587891 215.942840576172 234.000152587891 215.942840576172 234.000152587891 C 215.942840576172 234.000152587891 211.481109619141 253.236999511719 221.798889160156 263.691711425781 C 233.371490478516 275.122344970703 249.684814453125 274.425354003906 249.684814453125 274.425354003906 C 249.684814453125 274.425354003906 253.728179931641 323.632507324219 225.005737304688 369.772979736328 C 195.864959716797 416.471008300781 156.824737548828 428.041015625 156.824737548828 428.041015625 C 156.824737548828 428.041015625 142.881805419922 423.998504638672 125.313690185547 410.616363525391 C 111.649597167969 446.023223876953 111.649597167969 446.023223876953 111.649597167969 446.023223876953 C 135.910308837891 464.563049316406 155.430480957031 470.278350830078 155.430480957031 470.278350830078 C 155.430480957031 470.278350830078 210.086761474609 454.108245849609 250.660797119141 389.009765625 C 290.816467285156 324.468902587891 284.960388183594 255.885498046875 284.960388183594 255.885498046875  Z" fill="#FE7134" />
    <path d="M 156.7343 428.0694 C 156.734344482422 428.069366455078 195.76953125 416.492279052734 224.906524658203 369.765502929688 C 253.625274658203 323.5966796875 249.582366943359 274.359283447266 249.582366943359 274.359283447266 C 249.582366943359 274.359283447266 233.271179199219 275.056671142578 221.700073242188 263.619110107422 C 211.383636474609 253.157867431641 215.844818115234 233.909271240234 215.844818115234 233.909271240234 C 195.76953125 229.8642578125 195.76953125 229.8642578125 195.76953125 229.8642578125 C 125.227325439453 410.634002685547 125.227325439453 410.634002685547 125.227325439453 410.634002685547 C 142.793151855469 424.024322509766 156.734344482422 428.069366455078 156.734344482422 428.069366455078  Z" fill="#CC4212" />
    <path d="M 88.61282 369.7979 C 59.7452697753906 323.641326904297 63.9289703369141 274.417083740234 63.9289703369141 274.417083740234 C 63.9289703369141 274.417083740234 80.2454376220703 275.114227294922 91.8204040527344 263.679748535156 C 102.140167236328 253.221343994141 97.6775512695313 233.977783203125 97.6775512695313 233.977783203125 C 156.807312011719 222.264404296875 156.807312011719 222.264404296875 156.807312011719 222.264404296875 C 195.855285644531 229.933868408203 195.855285644531 229.933868408203 195.855285644531 229.933868408203 C 209.940460205078 193.817474365234 209.940460205078 193.817474365234 209.940460205078 193.817474365234 C 155.412750244141 183.080169677734 155.412750244141 183.080169677734 155.412750244141 183.080169677734 C 72.854248046875 199.395263671875 72.854248046875 199.395263671875 72.854248046875 199.395263671875 C 72.854248046875 199.395263671875 79.1297607421875 226.308349609375 64.626220703125 240.810607910156 C 48.5886688232422 256.846923828125 25.8571624755859 255.870788574219 25.8571624755859 255.870788574219 C 25.8571624755859 255.870788574219 20 324.47802734375 60.1636199951172 389.041320800781 C 76.4800720214844 415.257141113281 95.1673278808594 433.524566650391 111.623229980469 446.074645996094 C 125.290069580078 410.655426025391 125.290069580078 410.655426025391 125.290069580078 410.655426025391 C 113.57568359375 401.730926513672 100.327239990234 388.623046875 88.6128234863281 369.7978515625  Z" fill="#E05322" />
    <path d="M 97.62189 233.9079 C 97.6218872070313 233.907928466797 102.083312988281 253.158874511719 91.7662963867188 263.621398925781 C 80.1945648193359 275.060455322266 63.8825988769531 274.362915039063 63.8825988769531 274.362915039063 C 63.8825988769531 274.362915039063 59.7000732421875 323.6064453125 88.5596923828125 369.780944824219 C 100.270874023438 388.613464355469 113.515594482422 401.726440429688 125.226684570313 410.654479980469 C 195.772430419922 229.862426757813 195.772430419922 229.862426757813 195.772430419922 229.862426757813 C 156.735290527344 222.189910888672 156.735290527344 222.189910888672 156.735290527344 222.189910888672 L 97.62189 233.9079 Z " fill="#99280A" />
    <path d="M 222.6045 243.4499 C 220.375579833984 243.589508056641 221.629302978516 218.605499267578 217.032196044922 213.99951171875 C 212.435119628906 209.253936767578 187.360168457031 210.510162353516 187.638732910156 208.276916503906 C 187.778106689453 206.322906494141 211.181427001953 204.787567138672 215.917785644531 200.041961669922 C 220.654174804688 195.29638671875 222.325836181641 171.847717285156 224.415435791016 171.708190917969 C 226.644317626953 171.568572998047 226.365661621094 195.715118408203 230.823455810547 200.181579589844 C 235.28125 204.64794921875 259.381103515625 204.368804931641 259.241821289063 206.462432861328 C 259.102508544922 208.556060791016 235.141967773438 209.672668457031 230.405578613281 214.557800292969 C 225.529846191406 219.303375244141 224.554718017578 243.310394287109 222.6044921875 243.449920654297  Z" fill="#F5F5F5" />
    <path d="M 262.071 307.2061 C 260.539215087891 307.345733642578 261.374725341797 290.167236328125 258.172058105469 286.955017089844 C 255.108673095703 283.882446289063 237.981414794922 284.720397949219 238.120635986328 283.18408203125 C 238.120635986328 281.787475585938 254.273162841797 280.670135498047 257.475830078125 277.457946777344 C 260.678497314453 274.245727539063 261.931640625 258.044860839844 263.324188232422 258.044860839844 C 264.855834960938 257.905181884766 264.577331542969 274.525024414063 267.640777587891 277.597625732422 C 270.704162597656 280.670135498047 287.2744140625 280.390869140625 287.135192871094 281.787475585938 C 287.135192871094 283.323760986328 270.704162597656 284.022125244141 267.362274169922 287.373992919922 C 264.020385742188 290.725891113281 263.46337890625 307.066436767578 262.070953369141 307.2060546875  Z" fill="#F5F5F5" />
    <path d="M 382.9088 419.1755 C 382.908752441406 430.356536865234 373.845764160156 439.580871582031 362.551818847656 439.580871582031 C 107.950317382813 439.580871582031 107.950317382813 439.580871582031 107.950317382813 439.580871582031 C 96.7958374023438 439.580871582031 87.5933837890625 430.356536865234 87.5933837890625 419.175506591797 C 87.5933837890625 399.329284667969 87.5933837890625 399.329284667969 87.5933837890625 399.329284667969 C 87.5933837890625 388.008483886719 96.7958374023438 378.923919677734 107.950317382813 378.923919677734 C 362.551818847656 378.923919677734 362.551818847656 378.923919677734 362.551818847656 378.923919677734 C 373.845764160156 378.923919677734 382.908752441406 388.008483886719 382.908752441406 399.329284667969 L 382.9088 419.1755 Z " fill="#EDEDED" />
    <path d="M 150.0214 409.8365 C 150.021423339844 411.508270263672 149.88134765625 413.040618896484 149.461273193359 414.433776855469 C 148.901092529297 415.826843261719 148.340881347656 416.941253662109 147.500640869141 417.916442871094 C 146.660400390625 419.030944824219 145.680084228516 419.727478027344 144.419677734375 420.284729003906 C 143.159301757813 420.841888427734 141.758911132813 421.120544433594 140.218414306641 421.120544433594 C 138.958038330078 421.120544433594 137.837646484375 420.981262207031 136.857391357422 420.563293457031 C 136.01708984375 420.284729003906 135.176849365234 420.006042480469 134.756683349609 419.727478027344 C 134.756683349609 428.364562988281 134.756683349609 428.364562988281 134.756683349609 428.364562988281 C 130.835510253906 428.364562988281 130.835510253906 428.364562988281 130.835510253906 428.364562988281 C 130.835510253906 399.667083740234 130.835510253906 399.667083740234 130.835510253906 399.667083740234 C 131.815826416016 399.388427734375 132.936126708984 399.109832763672 134.336608886719 398.970550537109 C 135.736999511719 398.69189453125 137.277465820313 398.552581787109 139.098022460938 398.552581787109 C 140.778594970703 398.552581787109 142.319061279297 398.831176757813 143.579437255859 399.249114990234 C 144.979827880859 399.806365966797 146.100250244141 400.642181396484 147.08056640625 401.617401123047 C 148.060791015625 402.592498779297 148.761016845703 403.707000732422 149.321166992188 405.100067138672 C 149.741333007813 406.493133544922 150.021423339844 408.025573730469 150.021423339844 409.836517333984  ZM 145.9601 409.8365 C 145.960144042969 407.329040527344 145.399993896484 405.378723144531 144.139617919922 403.985595703125 C 142.879211425781 402.592498779297 141.19873046875 402.035278320313 139.098022460938 402.035278320313 C 137.837646484375 402.035278320313 136.997406005859 402.035278320313 136.297180175781 402.035278320313 C 135.736999511719 402.174621582031 135.176849365234 402.313934326172 134.756683349609 402.453216552734 C 134.756683349609 416.105438232422 134.756683349609 416.105438232422 134.756683349609 416.105438232422 C 135.176849365234 416.384094238281 135.877075195313 416.801971435547 136.857391357422 417.219909667969 C 137.697631835938 417.498504638672 138.677947998047 417.777160644531 139.798278808594 417.777160644531 C 140.918579101563 417.777160644531 141.758911132813 417.498504638672 142.59912109375 417.080627441406 C 143.439361572266 416.662658691406 143.999542236328 416.105438232422 144.559753417969 415.408874511719 C 145.119934082031 414.712341308594 145.399993896484 413.876525878906 145.680084228516 412.901336669922 C 145.820159912109 411.926208496094 145.960144042969 410.951019287109 145.960144042969 409.836517333984  Z" fill="#575756" />
    <path d="M 162.4795 398.405 C 164.009063720703 398.405029296875 165.260467529297 398.683929443359 166.372833251953 398.962738037109 C 167.346130371094 399.381103515625 168.319458007813 399.938812255859 168.875671386719 400.775421142578 C 169.570861816406 401.472595214844 169.988037109375 402.309204101563 170.266052246094 403.424713134766 C 170.544158935547 404.400787353516 170.683227539063 405.516204833984 170.683227539063 406.771179199219 C 170.683227539063 420.296356201172 170.683227539063 420.296356201172 170.683227539063 420.296356201172 C 170.405120849609 420.296356201172 169.988037109375 420.435821533203 169.292755126953 420.435821533203 C 168.736602783203 420.575256347656 168.041351318359 420.714721679688 167.346130371094 420.714721679688 C 166.511810302734 420.854095458984 165.816619873047 420.993530273438 164.843292236328 420.993530273438 C 164.009063720703 421.132995605469 163.174713134766 421.132995605469 162.340484619141 421.132995605469 C 161.089050292969 421.132995605469 159.976684570313 420.993530273438 158.864318847656 420.714721679688 C 157.891021728516 420.435821533203 157.056701660156 420.017456054688 156.222442626953 419.599212646484 C 155.527252197266 419.041473388672 154.971038818359 418.34423828125 154.553863525391 417.368255615234 C 154.136779785156 416.531646728516 153.858673095703 415.416137695313 153.858673095703 414.161254882813 C 153.858673095703 413.045745849609 154.136779785156 411.930236816406 154.553863525391 411.093597412109 C 155.110076904297 410.256988525391 155.805267333984 409.559844970703 156.639617919922 409.002105712891 C 157.473846435547 408.444396972656 158.447174072266 408.026062011719 159.559539794922 407.886596679688 C 160.671875 407.607788085938 161.784240722656 407.468322753906 163.035675048828 407.468322753906 C 163.452819824219 407.468322753906 163.73095703125 407.468322753906 164.148040771484 407.468322753906 C 164.565185546875 407.607788085938 164.982360839844 407.607788085938 165.399444580078 407.747161865234 C 165.816619873047 407.747161865234 166.0947265625 407.886596679688 166.372833251953 407.886596679688 C 166.65087890625 407.886596679688 166.789916992188 408.026062011719 166.928985595703 408.026062011719 C 166.928985595703 406.910614013672 166.928985595703 406.910614013672 166.928985595703 406.910614013672 C 166.928985595703 406.352813720703 166.928985595703 405.655670166016 166.789916992188 405.097930908203 C 166.65087890625 404.400787353516 166.372833251953 403.842987060547 165.955657958984 403.424713134766 C 165.677551269531 402.867004394531 165.121429443359 402.448638916016 164.565185546875 402.169769287109 C 163.869995117188 401.890930175781 163.035675048828 401.751495361328 162.062347412109 401.751495361328 C 160.810943603516 401.751495361328 159.698577880859 401.890930175781 158.725280761719 402.030395507813 C 157.751983642578 402.169769287109 157.056701660156 402.448638916016 156.639617919922 402.588104248047 C 156.083374023438 399.381103515625 156.083374023438 399.381103515625 156.083374023438 399.381103515625 C 156.639617919922 399.102203369141 157.473846435547 398.962738037109 158.586212158203 398.683929443359 C 159.837646484375 398.544464111328 161.089050292969 398.405029296875 162.479522705078 398.405029296875  ZM 162.7576 417.7865 C 163.73095703125 417.786529541016 164.426147460938 417.786529541016 165.121429443359 417.786529541016 C 165.955657958984 417.786529541016 166.511810302734 417.647064208984 166.928985595703 417.507629394531 C 166.928985595703 411.093597412109 166.928985595703 411.093597412109 166.928985595703 411.093597412109 C 166.65087890625 410.954254150391 166.233764648438 410.814788818359 165.538513183594 410.675354003906 C 164.982360839844 410.675354003906 164.287078857422 410.535888671875 163.313781738281 410.535888671875 C 162.757629394531 410.535888671875 162.201416015625 410.675354003906 161.506225585938 410.675354003906 C 160.810943603516 410.814788818359 160.254791259766 410.954254150391 159.698577880859 411.233062744141 C 159.142456054688 411.511962890625 158.725280761719 411.930236816406 158.30810546875 412.348571777344 C 158.030090332031 412.766845703125 157.751983642578 413.324645996094 157.751983642578 414.161254882813 C 157.751983642578 415.555572509766 158.30810546875 416.531646728516 159.142456054688 417.08935546875 C 159.976684570313 417.647064208984 161.228118896484 417.786529541016 162.757629394531 417.786529541016  Z" fill="#575756" />
    <path d="M 182.2431 417.7865 C 183.777954101563 417.786529541016 184.894256591797 417.647064208984 185.731414794922 417.228820800781 C 186.429046630859 416.810455322266 186.847717285156 416.113311767578 186.847717285156 415.276672363281 C 186.847717285156 414.300628662109 186.429046630859 413.464019775391 185.731414794922 412.906280517578 C 185.033782958984 412.348571777344 183.777954101563 411.790863037109 181.964019775391 411.093597412109 C 181.126770019531 410.814788818359 180.429138183594 410.396453857422 179.591888427734 410.117614746094 C 178.894256591797 409.699279785156 178.196624755859 409.281005859375 177.638427734375 408.862670898438 C 177.080322265625 408.304962158203 176.661743164063 407.747161865234 176.243072509766 407.189453125 C 175.964019775391 406.492279052734 175.824493408203 405.655670166016 175.824493408203 404.679595947266 C 175.824493408203 402.7275390625 176.522216796875 401.193756103516 177.91748046875 400.078247070313 C 179.312835693359 398.962738037109 181.266296386719 398.405029296875 183.777954101563 398.405029296875 C 184.336059570313 398.405029296875 184.894256591797 398.405029296875 185.591888427734 398.544464111328 C 186.149993896484 398.544464111328 186.708190917969 398.683929443359 187.266296386719 398.823303222656 C 187.824401855469 398.823303222656 188.243072509766 398.962738037109 188.661651611328 399.102203369141 C 189.080230712891 399.241638183594 189.359283447266 399.241638183594 189.638336181641 399.381103515625 C 188.940704345703 402.7275390625 188.940704345703 402.7275390625 188.940704345703 402.7275390625 C 188.522125244141 402.448638916016 187.824401855469 402.309204101563 186.987243652344 402.030395507813 C 186.010467529297 401.751495361328 185.033782958984 401.612030029297 183.777954101563 401.612030029297 C 182.661651611328 401.612030029297 181.684967041016 401.890930175781 180.847717285156 402.309204101563 C 180.150085449219 402.7275390625 179.731506347656 403.424713134766 179.731506347656 404.400787353516 C 179.731506347656 404.819030761719 179.731506347656 405.237396240234 180.010559082031 405.655670166016 C 180.150085449219 405.9345703125 180.429138183594 406.21337890625 180.847717285156 406.631713867188 C 181.126770019531 406.910614013672 181.684967041016 407.189453125 182.243072509766 407.328887939453 C 182.801177978516 407.607788085938 183.359375 407.886596679688 184.196533203125 408.165496826172 C 185.173309326172 408.583770751953 186.149993896484 409.002105712891 186.987243652344 409.281005859375 C 187.684875488281 409.699279785156 188.382598876953 410.117614746094 188.940704345703 410.675354003906 C 189.638336181641 411.093597412109 190.057006835938 411.790863037109 190.336059570313 412.488037109375 C 190.615112304688 413.185180664063 190.754638671875 414.021789550781 190.754638671875 414.997863769531 C 190.754638671875 417.08935546875 190.057006835938 418.623138427734 188.522125244141 419.599212646484 C 187.126770019531 420.575256347656 184.894256591797 421.132995605469 182.243072509766 421.132995605469 C 180.289611816406 421.132995605469 178.754730224609 420.993530273438 177.638427734375 420.714721679688 C 176.661743164063 420.296356201172 175.824493408203 420.156921386719 175.405914306641 419.878112792969 C 176.243072509766 416.531646728516 176.243072509766 416.531646728516 176.243072509766 416.531646728516 C 176.661743164063 416.810455322266 177.359375 416.949920654297 178.336151123047 417.368255615234 C 179.312835693359 417.647064208984 180.568664550781 417.786529541016 182.243072509766 417.786529541016  Z" fill="#575756" />
    <path d="M 200.8466 417.7865 C 202.381500244141 417.786529541016 203.637329101563 417.647064208984 204.3349609375 417.228820800781 C 205.172119140625 416.810455322266 205.451263427734 416.113311767578 205.451263427734 415.276672363281 C 205.451263427734 414.300628662109 205.172119140625 413.464019775391 204.3349609375 412.906280517578 C 203.637329101563 412.348571777344 202.381500244141 411.790863037109 200.707092285156 411.093597412109 C 199.869842529297 410.814788818359 199.032684326172 410.396453857422 198.3349609375 410.117614746094 C 197.497802734375 409.699279785156 196.800170898438 409.281005859375 196.241973876953 408.862670898438 C 195.683868408203 408.304962158203 195.265289306641 407.747161865234 194.986145019531 407.189453125 C 194.567565917969 406.492279052734 194.428039550781 405.655670166016 194.428039550781 404.679595947266 C 194.428039550781 402.7275390625 195.125762939453 401.193756103516 196.521026611328 400.078247070313 C 198.055908203125 398.962738037109 199.869842529297 398.405029296875 202.381500244141 398.405029296875 C 202.939605712891 398.405029296875 203.637329101563 398.405029296875 204.195434570313 398.544464111328 C 204.89306640625 398.544464111328 205.451263427734 398.683929443359 205.869842529297 398.823303222656 C 206.427947998047 398.823303222656 206.986145019531 398.962738037109 207.265197753906 399.102203369141 C 207.683776855469 399.241638183594 208.102355957031 399.241638183594 208.241882324219 399.381103515625 C 207.544250488281 402.7275390625 207.544250488281 402.7275390625 207.544250488281 402.7275390625 C 207.125671386719 402.448638916016 206.427947998047 402.309204101563 205.590789794922 402.030395507813 C 204.753540039063 401.751495361328 203.637329101563 401.612030029297 202.381500244141 401.612030029297 C 201.265197753906 401.612030029297 200.288513183594 401.890930175781 199.590789794922 402.309204101563 C 198.753631591797 402.7275390625 198.3349609375 403.424713134766 198.3349609375 404.400787353516 C 198.3349609375 404.819030761719 198.474578857422 405.237396240234 198.614105224609 405.655670166016 C 198.753631591797 405.9345703125 199.032684326172 406.21337890625 199.451263427734 406.631713867188 C 199.869842529297 406.910614013672 200.288513183594 407.189453125 200.846618652344 407.328887939453 C 201.404724121094 407.607788085938 202.102447509766 407.886596679688 202.800079345703 408.165496826172 C 203.916381835938 408.583770751953 204.753540039063 409.002105712891 205.590789794922 409.281005859375 C 206.427947998047 409.699279785156 207.125671386719 410.117614746094 207.683776855469 410.675354003906 C 208.241882324219 411.093597412109 208.660552978516 411.790863037109 208.939605712891 412.488037109375 C 209.218658447266 413.185180664063 209.497711181641 414.021789550781 209.497711181641 414.997863769531 C 209.497711181641 417.08935546875 208.660552978516 418.623138427734 207.265197753906 419.599212646484 C 205.730316162109 420.575256347656 203.637329101563 421.132995605469 200.846618652344 421.132995605469 C 198.893157958984 421.132995605469 197.358276367188 420.993530273438 196.381500244141 420.714721679688 C 195.265289306641 420.296356201172 194.567565917969 420.156921386719 194.148986816406 419.878112792969 C 194.846618652344 416.531646728516 194.846618652344 416.531646728516 194.846618652344 416.531646728516 C 195.265289306641 416.810455322266 195.962921142578 416.949920654297 196.939697265625 417.368255615234 C 197.916381835938 417.647064208984 199.172210693359 417.786529541016 200.846618652344 417.786529541016  Z" fill="#575756" />
    <path d="M 228.5361 401.7799 C 228.536071777344 402.476135253906 228.263061523438 403.172271728516 227.853454589844 403.729125976563 C 227.307403564453 404.286041259766 226.624877929688 404.564544677734 225.805755615234 404.564544677734 C 224.986694335938 404.564544677734 224.304107666016 404.286041259766 223.758026123047 403.729125976563 C 223.348510742188 403.172271728516 223.075439453125 402.476135253906 223.075439453125 401.779907226563 C 223.075439453125 401.083770751953 223.348510742188 400.387634277344 223.758026123047 399.830688476563 C 224.304107666016 399.273773193359 224.986694335938 398.995330810547 225.805755615234 398.995330810547 C 226.624877929688 398.995330810547 227.307403564453 399.273773193359 227.853454589844 399.830688476563 C 228.263061523438 400.387634277344 228.536071777344 401.083770751953 228.536071777344 401.779907226563  ZM 228.5361 418.3483 C 228.536071777344 419.183685302734 228.263061523438 419.740631103516 227.853454589844 420.297546386719 C 227.307403564453 420.8544921875 226.624877929688 421.132904052734 225.805755615234 421.132904052734 C 224.986694335938 421.132904052734 224.304107666016 420.8544921875 223.758026123047 420.297546386719 C 223.348510742188 419.740631103516 223.075439453125 419.183685302734 223.075439453125 418.348327636719 C 223.075439453125 417.652130126953 223.348510742188 416.955963134766 223.758026123047 416.399139404297 C 224.304107666016 415.842193603516 224.986694335938 415.563690185547 225.805755615234 415.563690185547 C 226.624877929688 415.563690185547 227.307403564453 415.842193603516 227.853454589844 416.399139404297 C 228.263061523438 416.955963134766 228.536071777344 417.652130126953 228.536071777344 418.348327636719  Z" fill="#575756" />
    <path d="M 252.4031 392.0358 C 252.403137207031 393.154876708984 252.26416015625 394.27392578125 252.125122070313 395.392974853516 C 251.847015380859 396.372192382813 251.707946777344 397.491241455078 251.429840087891 398.750213623047 C 252.403137207031 398.190704345703 253.376525878906 397.631103515625 254.349853515625 397.071563720703 C 255.323150634766 396.512023925781 256.435516357422 396.092437744141 257.547882080078 395.672760009766 C 257.825988769531 395.532897949219 257.825988769531 395.532897949219 257.825988769531 395.532897949219 C 258.938354492188 399.029998779297 258.938354492188 399.029998779297 258.938354492188 399.029998779297 C 258.660247802734 399.169830322266 258.660247802734 399.169830322266 258.660247802734 399.169830322266 C 257.547882080078 399.589508056641 256.435516357422 399.869293212891 255.323150634766 400.009124755859 C 254.210784912109 400.149047851563 253.098419189453 400.288879394531 251.986053466797 400.288879394531 C 252.8203125 401.128173828125 253.654571533203 401.82763671875 254.488891601563 402.666931152344 C 255.323150634766 403.366363525391 256.018341064453 404.205657958984 256.713623046875 405.184875488281 C 256.991729736328 405.464630126953 256.991729736328 405.464630126953 256.991729736328 405.464630126953 C 253.932678222656 407.702758789063 253.932678222656 407.702758789063 253.932678222656 407.702758789063 C 253.793609619141 407.422973632813 253.793609619141 407.422973632813 253.793609619141 407.422973632813 C 253.098419189453 406.443756103516 252.542205810547 405.32470703125 251.986053466797 404.345489501953 C 251.568908691406 403.366363525391 251.012756347656 402.387145996094 250.595581054688 401.268096923828 C 250.039367675781 402.387145996094 249.622283935547 403.366363525391 249.066070556641 404.345489501953 C 248.648986816406 405.32470703125 247.953704833984 406.443756103516 247.397552490234 407.422973632813 C 247.119445800781 407.702758789063 247.119445800781 407.702758789063 247.119445800781 407.702758789063 C 244.199462890625 405.464630126953 244.199462890625 405.464630126953 244.199462890625 405.464630126953 C 244.338500976563 405.184875488281 244.338500976563 405.184875488281 244.338500976563 405.184875488281 C 245.033782958984 404.205657958984 245.728973388672 403.366363525391 246.563232421875 402.666931152344 C 247.397552490234 401.82763671875 248.231811523438 401.128173828125 249.205108642578 400.288879394531 C 247.953704833984 400.288879394531 246.841339111328 400.149047851563 245.728973388672 400.009124755859 C 244.616607666016 399.869293212891 243.504241943359 399.589508056641 242.391876220703 399.169830322266 C 242.11376953125 399.029998779297 242.11376953125 399.029998779297 242.11376953125 399.029998779297 C 243.226135253906 395.532897949219 243.226135253906 395.532897949219 243.226135253906 395.532897949219 C 243.504241943359 395.672760009766 243.504241943359 395.672760009766 243.504241943359 395.672760009766 C 244.616607666016 396.092437744141 245.728973388672 396.512023925781 246.702270507813 397.071563720703 C 247.675598144531 397.631103515625 248.648986816406 398.190704345703 249.622283935547 398.750213623047 C 249.344177246094 397.491241455078 249.205108642578 396.372192382813 248.927001953125 395.392974853516 C 248.787963867188 394.27392578125 248.648986816406 393.154876708984 248.648986816406 392.035827636719 C 248.648986816406 391.616119384766 248.648986816406 391.616119384766 248.648986816406 391.616119384766 C 252.403137207031 391.616119384766 252.403137207031 391.616119384766 252.403137207031 391.616119384766 L 252.4031 392.0358 Z " fill="#575756" />
    <path d="M 272.4713 392.0358 C 272.471252441406 393.154876708984 272.332214355469 394.27392578125 272.053924560547 395.392974853516 C 271.914794921875 396.372192382813 271.636627197266 397.491241455078 271.497467041016 398.750213623047 C 272.471252441406 398.190704345703 273.445129394531 397.631103515625 274.418884277344 397.071563720703 C 275.392761230469 396.512023925781 276.505676269531 396.092437744141 277.618591308594 395.672760009766 C 277.757720947266 395.532897949219 277.757720947266 395.532897949219 277.757720947266 395.532897949219 C 279.009765625 399.029998779297 279.009765625 399.029998779297 279.009765625 399.029998779297 C 278.592437744141 399.169830322266 278.592437744141 399.169830322266 278.592437744141 399.169830322266 C 277.479461669922 399.589508056641 276.505676269531 399.869293212891 275.392761230469 400.009124755859 C 274.279846191406 400.149047851563 273.027801513672 400.288879394531 271.914794921875 400.288879394531 C 272.888671875 401.128173828125 273.723297119141 401.82763671875 274.558044433594 402.666931152344 C 275.253631591797 403.366363525391 276.088348388672 404.205657958984 276.783935546875 405.184875488281 C 276.923004150391 405.464630126953 276.923004150391 405.464630126953 276.923004150391 405.464630126953 C 273.862426757813 407.702758789063 273.862426757813 407.702758789063 273.862426757813 407.702758789063 C 273.723297119141 407.422973632813 273.723297119141 407.422973632813 273.723297119141 407.422973632813 C 273.027801513672 406.443756103516 272.471252441406 405.32470703125 272.053924560547 404.345489501953 C 271.497467041016 403.366363525391 271.080169677734 402.387145996094 270.523712158203 401.268096923828 C 270.106292724609 402.387145996094 269.549835205078 403.366363525391 269.132507324219 404.345489501953 C 268.576049804688 405.32470703125 268.01953125 406.443756103516 267.324005126953 407.422973632813 C 267.184875488281 407.702758789063 267.184875488281 407.702758789063 267.184875488281 407.702758789063 C 264.124328613281 405.464630126953 264.124328613281 405.464630126953 264.124328613281 405.464630126953 C 264.402526855469 405.184875488281 264.402526855469 405.184875488281 264.402526855469 405.184875488281 C 265.098114013672 404.205657958984 265.793701171875 403.366363525391 266.62841796875 402.666931152344 C 267.463073730469 401.82763671875 268.297790527344 401.128173828125 269.132507324219 400.288879394531 C 268.01953125 400.288879394531 266.906616210938 400.149047851563 265.793701171875 400.009124755859 C 264.680786132813 399.869293212891 263.56787109375 399.589508056641 262.454895019531 399.169830322266 C 262.037567138672 399.029998779297 262.037567138672 399.029998779297 262.037567138672 399.029998779297 C 263.289611816406 395.532897949219 263.289611816406 395.532897949219 263.289611816406 395.532897949219 C 263.56787109375 395.672760009766 263.56787109375 395.672760009766 263.56787109375 395.672760009766 C 264.680786132813 396.092437744141 265.654571533203 396.512023925781 266.62841796875 397.071563720703 C 267.602203369141 397.631103515625 268.576049804688 398.190704345703 269.68896484375 398.750213623047 C 269.410705566406 397.491241455078 269.132507324219 396.372192382813 268.993377685547 395.392974853516 C 268.715118408203 394.27392578125 268.715118408203 393.154876708984 268.715118408203 392.035827636719 C 268.715118408203 391.616119384766 268.715118408203 391.616119384766 268.715118408203 391.616119384766 C 272.471252441406 391.616119384766 272.471252441406 391.616119384766 272.471252441406 391.616119384766 L 272.4713 392.0358 Z " fill="#575756" />
    <path d="M 292.3983 392.0358 C 292.398345947266 393.154876708984 292.259368896484 394.27392578125 292.120300292969 395.392974853516 C 291.842193603516 396.372192382813 291.703155517578 397.491241455078 291.425048828125 398.750213623047 C 292.398345947266 398.190704345703 293.510772705078 397.631103515625 294.345031738281 397.071563720703 C 295.318359375 396.512023925781 296.430694580078 396.092437744141 297.543060302734 395.672760009766 C 297.821166992188 395.532897949219 297.821166992188 395.532897949219 297.821166992188 395.532897949219 C 298.933532714844 399.029998779297 298.933532714844 399.029998779297 298.933532714844 399.029998779297 C 298.655426025391 399.169830322266 298.655426025391 399.169830322266 298.655426025391 399.169830322266 C 297.543060302734 399.589508056641 296.430694580078 399.869293212891 295.318359375 400.009124755859 C 294.205993652344 400.149047851563 293.093627929688 400.288879394531 291.981262207031 400.288879394531 C 292.815521240234 401.128173828125 293.649749755859 401.82763671875 294.484100341797 402.666931152344 C 295.318359375 403.366363525391 296.013549804688 404.205657958984 296.708831787109 405.184875488281 C 296.986938476563 405.464630126953 296.986938476563 405.464630126953 296.986938476563 405.464630126953 C 293.927886962891 407.702758789063 293.927886962891 407.702758789063 293.927886962891 407.702758789063 C 293.788818359375 407.422973632813 293.788818359375 407.422973632813 293.788818359375 407.422973632813 C 293.093627929688 406.443756103516 292.537414550781 405.32470703125 291.981262207031 404.345489501953 C 291.564086914063 403.366363525391 291.007965087891 402.387145996094 290.590789794922 401.268096923828 C 290.034576416016 402.387145996094 289.617492675781 403.366363525391 289.061248779297 404.345489501953 C 288.644165039063 405.32470703125 287.948883056641 406.443756103516 287.392761230469 407.422973632813 C 287.114654541016 407.702758789063 287.114654541016 407.702758789063 287.114654541016 407.702758789063 C 284.194641113281 405.464630126953 284.194641113281 405.464630126953 284.194641113281 405.464630126953 C 284.333709716797 405.184875488281 284.333709716797 405.184875488281 284.333709716797 405.184875488281 C 285.028961181641 404.205657958984 285.724182128906 403.366363525391 286.558410644531 402.666931152344 C 287.392761230469 401.82763671875 288.227020263672 401.128173828125 289.200317382813 400.288879394531 C 287.948883056641 400.288879394531 286.836547851563 400.149047851563 285.724182128906 400.009124755859 C 284.61181640625 399.869293212891 283.499450683594 399.589508056641 282.387084960938 399.169830322266 C 282.108978271484 399.029998779297 282.108978271484 399.029998779297 282.108978271484 399.029998779297 C 283.221343994141 395.532897949219 283.221343994141 395.532897949219 283.221343994141 395.532897949219 C 283.499450683594 395.672760009766 283.499450683594 395.672760009766 283.499450683594 395.672760009766 C 284.61181640625 396.092437744141 285.724182128906 396.512023925781 286.697479248047 397.071563720703 C 287.670776367188 397.631103515625 288.644165039063 398.190704345703 289.617492675781 398.750213623047 C 289.478424072266 397.491241455078 289.200317382813 396.372192382813 288.922210693359 395.392974853516 C 288.783142089844 394.27392578125 288.644165039063 393.154876708984 288.644165039063 392.035827636719 C 288.644165039063 391.616119384766 288.644165039063 391.616119384766 288.644165039063 391.616119384766 C 292.398345947266 391.616119384766 292.398345947266 391.616119384766 292.398345947266 391.616119384766 L 292.3983 392.0358 Z " fill="#575756" />
    <path d="M 312.4698 392.0358 C 312.469757080078 393.154876708984 312.330780029297 394.27392578125 312.052673339844 395.392974853516 C 311.913635253906 396.372192382813 311.635498046875 397.491241455078 311.496459960938 398.750213623047 C 312.469757080078 398.190704345703 313.443145751953 397.631103515625 314.416442871094 397.071563720703 C 315.389770507813 396.512023925781 316.502136230469 396.092437744141 317.614501953125 395.672760009766 C 317.892608642578 395.532897949219 317.892608642578 395.532897949219 317.892608642578 395.532897949219 C 319.004974365234 399.029998779297 319.004974365234 399.029998779297 319.004974365234 399.029998779297 C 318.726837158203 399.169830322266 318.726837158203 399.169830322266 318.726837158203 399.169830322266 C 317.614501953125 399.589508056641 316.502136230469 399.869293212891 315.389770507813 400.009124755859 C 314.277404785156 400.149047851563 313.025970458984 400.288879394531 311.913635253906 400.288879394531 C 312.886932373047 401.128173828125 313.72119140625 401.82763671875 314.555511474609 402.666931152344 C 315.250701904297 403.366363525391 316.0849609375 404.205657958984 316.780242919922 405.184875488281 C 316.919281005859 405.464630126953 316.919281005859 405.464630126953 316.919281005859 405.464630126953 C 313.860229492188 407.702758789063 313.860229492188 407.702758789063 313.860229492188 407.702758789063 C 313.72119140625 407.422973632813 313.72119140625 407.422973632813 313.72119140625 407.422973632813 C 313.025970458984 406.443756103516 312.469757080078 405.32470703125 312.052673339844 404.345489501953 C 311.496459960938 403.366363525391 311.079376220703 402.387145996094 310.523162841797 401.268096923828 C 310.105987548828 402.387145996094 309.549835205078 403.366363525391 309.132690429688 404.345489501953 C 308.576538085938 405.32470703125 308.020324707031 406.443756103516 307.325103759766 407.422973632813 C 307.186065673828 407.702758789063 307.186065673828 407.702758789063 307.186065673828 407.702758789063 C 304.127014160156 405.464630126953 304.127014160156 405.464630126953 304.127014160156 405.464630126953 C 304.405120849609 405.184875488281 304.405120849609 405.184875488281 304.405120849609 405.184875488281 C 305.100402832031 404.205657958984 305.795593261719 403.366363525391 306.629852294922 402.666931152344 C 307.464172363281 401.82763671875 308.298431396484 401.128173828125 309.132690429688 400.288879394531 C 308.020324707031 400.288879394531 306.907958984375 400.149047851563 305.795593261719 400.009124755859 C 304.683227539063 399.869293212891 303.570861816406 399.589508056641 302.45849609375 399.169830322266 C 302.180389404297 399.029998779297 302.180389404297 399.029998779297 302.180389404297 399.029998779297 C 303.292755126953 395.532897949219 303.292755126953 395.532897949219 303.292755126953 395.532897949219 C 303.570861816406 395.672760009766 303.570861816406 395.672760009766 303.570861816406 395.672760009766 C 304.683227539063 396.092437744141 305.656524658203 396.512023925781 306.629852294922 397.071563720703 C 307.603149414063 397.631103515625 308.576538085938 398.190704345703 309.688903808594 398.750213623047 C 309.410797119141 397.491241455078 309.132690429688 396.372192382813 308.993621826172 395.392974853516 C 308.854553222656 394.27392578125 308.715576171875 393.154876708984 308.715576171875 392.035827636719 C 308.715576171875 391.616119384766 308.715576171875 391.616119384766 308.715576171875 391.616119384766 C 312.469757080078 391.616119384766 312.469757080078 391.616119384766 312.469757080078 391.616119384766 L 312.4698 392.0358 Z " fill="#575756" />
    <path d="M 332.3936 392.0358 C 332.393615722656 393.154876708984 332.254638671875 394.27392578125 332.115600585938 395.392974853516 C 331.837493896484 396.372192382813 331.698425292969 397.491241455078 331.420318603516 398.750213623047 C 332.393615722656 398.190704345703 333.506072998047 397.631103515625 334.479370117188 397.071563720703 C 335.452667236328 396.512023925781 336.425994873047 396.092437744141 337.538360595703 395.672760009766 C 337.816467285156 395.532897949219 337.816467285156 395.532897949219 337.816467285156 395.532897949219 C 338.928833007813 399.029998779297 338.928833007813 399.029998779297 338.928833007813 399.029998779297 C 338.650695800781 399.169830322266 338.650695800781 399.169830322266 338.650695800781 399.169830322266 C 337.538360595703 399.589508056641 336.425994873047 399.869293212891 335.313629150391 400.009124755859 C 334.201263427734 400.149047851563 333.088897705078 400.288879394531 331.976531982422 400.288879394531 C 332.810791015625 401.128173828125 333.645050048828 401.82763671875 334.479370117188 402.666931152344 C 335.313629150391 403.366363525391 336.008819580078 404.205657958984 336.7041015625 405.184875488281 C 336.982208251953 405.464630126953 336.982208251953 405.464630126953 336.982208251953 405.464630126953 C 333.923156738281 407.702758789063 333.923156738281 407.702758789063 333.923156738281 407.702758789063 C 333.784088134766 407.422973632813 333.784088134766 407.422973632813 333.784088134766 407.422973632813 C 333.088897705078 406.443756103516 332.532684326172 405.32470703125 331.976531982422 404.345489501953 C 331.559356689453 403.366363525391 331.003234863281 402.387145996094 330.586059570313 401.268096923828 C 330.029846191406 402.387145996094 329.612762451172 403.366363525391 329.056549072266 404.345489501953 C 328.639434814453 405.32470703125 327.944183349609 406.443756103516 327.388031005859 407.422973632813 C 327.248962402344 407.702758789063 327.248962402344 407.702758789063 327.248962402344 407.702758789063 C 324.189910888672 405.464630126953 324.189910888672 405.464630126953 324.189910888672 405.464630126953 C 324.328979492188 405.184875488281 324.328979492188 405.184875488281 324.328979492188 405.184875488281 C 325.024261474609 404.205657958984 325.858489990234 403.366363525391 326.5537109375 402.666931152344 C 327.388031005859 401.82763671875 328.222290039063 401.128173828125 329.195587158203 400.288879394531 C 327.944183349609 400.288879394531 326.831817626953 400.149047851563 325.719451904297 400.009124755859 C 324.607086181641 399.869293212891 323.494720458984 399.589508056641 322.382354736328 399.169830322266 C 322.104248046875 399.029998779297 322.104248046875 399.029998779297 322.104248046875 399.029998779297 C 323.216613769531 395.532897949219 323.216613769531 395.532897949219 323.216613769531 395.532897949219 C 323.494720458984 395.672760009766 323.494720458984 395.672760009766 323.494720458984 395.672760009766 C 324.607086181641 396.092437744141 325.719451904297 396.512023925781 326.692749023438 397.071563720703 C 327.666076660156 397.631103515625 328.639434814453 398.190704345703 329.612762451172 398.750213623047 C 329.473693847656 397.491241455078 329.195587158203 396.372192382813 329.056549072266 395.392974853516 C 328.778411865234 394.27392578125 328.639434814453 393.154876708984 328.639434814453 392.035827636719 C 328.639434814453 391.616119384766 328.639434814453 391.616119384766 328.639434814453 391.616119384766 C 332.393615722656 391.616119384766 332.393615722656 391.616119384766 332.393615722656 391.616119384766 L 332.3936 392.0358 Z " fill="#575756" />
  </g>
</svg>